<svg width="33" height="64" fill="none" xmlns="http://www.w3.org/2000/svg">
  <path fill-rule="evenodd" clip-rule="evenodd" d="M32 1.18c.07-.57 0-.5-.22-1.02a.34.34 0 00-.3-.16c-.35 0-.93.45-1.25.8-2.19 2.43-4.86 6.53-6.28 7-.7.26-1.38-.98-1.86-1.43-1.94-1.89-4.41-4-8.44-5.25-2.12-.7-3.93-1.31-4.6-1-1.26.58.54 1.74 1.25 2.5.55.58 1.16.52 1.8.23.49-.2 1.07-.2 1.55 0 3.64 1.47 5.7 2.88 7.8 5.12.67.77 1.09 1.73.44 2.33a614.43 614.43 0 00-6.53 6.4c-.49.48-1.07 1.12-1.68 1.1-.38-.04-1-.46-1.35-.68-.61-.42-1.16-.64-1.74-1.09-.51-.38-.6-.73-.64-1.37-.03-1.06.22-1.96.39-2.76.25-1.44.57-2.88.86-4.35.23-1.12.36-2.56.26-3.74-.1-.29-.58-.35-.9-.13l-.26 1.25c-.13.67-.25 1.89-.38 2.56-.39 2.11-.9 3.71-1.26 6.46l-.22 1.63c-.07.7.16 1.57-.07 2.02-.29.64-.55 1.15-.39 2.02.13.83-.06 1.05-.57 1.47a33.7 33.7 0 01-3.32 2.37c-.52.32-1.16.92-.77 1.56.35.64 1.16.77 1.86.8 1.1.07 2.48-1.34 3.55-1.56.41-.1 1-.26 1.35.03.45.32.54.83.64 1.34.42 1.92.3 2.91.16 4.96a22 22 0 01-.8 4.58 3.9 3.9 0 01-1.39 1.92A4.44 4.44 0 007 39.87c-.1.67.35 2.27-.36 4.1-.67 1.73-.77 2.11-1.48 3.74-.35.83-.7 1.86-1.1 2.88-.67 1.8-.77 1.67-1.31 3.49L1.7 57.5c-.52 1.64-.32 1.54-1.13 3.2-.22.42-.84 1.73-.39 2.56.2.36.71.74 1.1.74h.1c.8-.2 1.41-.48 1.8-1.28.35-.74.16-1.8.42-2.56.58-1.76 1.16-3.55 1.93-5.25.84-1.82.74-2.53 1.48-4.45.8-2.17 1.35-3.52 2.51-5.5 1.38-2.34 4.99-5.5 6.54-6.62 2.41-1.7 3.92-2.82 3.6-.87-.26 1.67-3.09 5.83-3.7 7.2a2.2 2.2 0 00-.07 1.95c.36.74 1.16 1.73 1.97 1.67.74-.03 1.38-1.03 1.16-1.73-.3-.86-.32-1.5.74-3.55 1.32-2.53 3.41-6.15 3.02-9.31-.13-1.16-1.5-1.73-2.64-1.35-1.28.45-3.4 2.15-4.73 2.85-.9.48-1.54.67-1.64-.29-.1-.9.1-1.95.16-2.88.29-3.3.1-4.48.42-7.39.1-.83.93-1.95 1.64-1.31 2.25 1.98 5.15 4.29 7.4 6.08a4.96 4.96 0 011.8 2.69c.23.64.04 1.6-.18 2.5-.1.4.1 1.02 1 .4 2.09-2.8 3.5-7.38 3.5-10.94.03-3.13.39-6.52-3-12.03-.54-.9-1.83-2.88-.57-4.19 1.77-1.92 5.28-5.15 6.05-6.66zm-4.25 19.3c.1 1.22.13 2.14.13 3.36 0 .8-.29 1.8-.45 2.88-.1.74-.16 1.8-.52 2.85-.06.16-.25.64-.6.64-.4.03-.52-.48-.72-.7-.67-.77-1.22-1.51-1.96-2.12-.7-.54-1.9-1.37-2.67-1.85-.71-.48-1.45-1.28-2.16-1.8a21.03 21.03 0 01-2.1-1.7c-.18-.15-.4-.44-.5-.63a1.76 1.76 0 01-.04-1.22c.16-.54.52-1.02.84-1.5.42-.61.87-1.19 1.35-1.73.3-.32.77-.77 1.13-1 .55-.31.77-.4 1.22-.86.45-.41.42-.83.87-1.28.45-.44 1-1.3 1.55-1.7.22-.15.6-.31.86-.18.36.12.71.57.9.9 1.49 2.62 2.65 4.8 2.87 7.64z" fill="#1F4766"/>
</svg>
